# xmcd CD database file
#
# Track frame offsets:
#	150
#	13900
#	29879
#	46368
#	61687
#	76579
#	92221
#	107312
#	119927
#	135812
#	151002
#	169363
#	197201
#
# Disc length: 3167 seconds
#
# Revision: 2
# Processed by: cddbd v1.5.2PL0 Copyright (c) Steve Scherf et al.
# Submitted via: CDex 1.51
#
DISCID=a50c5d0d
DTITLE=Stéphan Rizon - From Mars With Love
DYEAR=2012
DGENRE=Jazz
TTITLE0=Looking For Love
TTITLE1=I Will Love You So
TTITLE2=Ouch
TTITLE3=Mars
TTITLE4=Shelter Of Love
TTITLE5=About Me
TTITLE6=You Got Something
TTITLE7=To The Bone
TTITLE8=Big Boy
TTITLE9=Rock Soul
TTITLE10=Tou Lie To Me
TTITLE11=Give Me A Chance
TTITLE12=DATA
EXTD=YEAR: 2012
EXTT0=
EXTT1=
EXTT2=
EXTT3=
EXTT4=
EXTT5=
EXTT6=
EXTT7=
EXTT8=
EXTT9=
EXTT10=
EXTT11=
EXTT12=
PLAYORDER=
